<mxfile host="app.diagrams.net" agent="Mozilla/5.0 (Macintosh; Intel Mac OS X 10_15_7) AppleWebKit/605.1.15 (KHTML, like Gecko) Version/17.6 Safari/605.1.15" version="24.7.17">
  <diagram name="Page-1" id="d_0JgXEvPhGrC22qDGAM">
    <mxGraphModel dx="1122" dy="761" grid="1" gridSize="10" guides="1" tooltips="1" connect="1" arrows="1" fold="1" page="1" pageScale="1" pageWidth="1169" pageHeight="827" math="0" shadow="0">
      <root>
        <mxCell id="0" />
        <mxCell id="1" parent="0" />
        <mxCell id="c4MIGHAGQRNv4FYE_i-L-1" value="&lt;b&gt;MANAGE AI DRIVEN&lt;/b&gt;&lt;div&gt;&lt;b&gt;WEBSITE INTERACTION&lt;/b&gt;&lt;/div&gt;" style="rounded=1;whiteSpace=wrap;html=1;" vertex="1" parent="1">
          <mxGeometry x="500" y="50" width="190" height="40" as="geometry" />
        </mxCell>
        <mxCell id="c4MIGHAGQRNv4FYE_i-L-2" value="ENHANCHED DATA&lt;div&gt;RETRIVAL&lt;/div&gt;" style="rounded=1;whiteSpace=wrap;html=1;" vertex="1" parent="1">
          <mxGeometry x="50" y="180" width="160" height="50" as="geometry" />
        </mxCell>
        <mxCell id="c4MIGHAGQRNv4FYE_i-L-3" value="" style="endArrow=none;html=1;rounded=0;entryX=0;entryY=1;entryDx=0;entryDy=0;" edge="1" parent="1" target="c4MIGHAGQRNv4FYE_i-L-1">
          <mxGeometry width="50" height="50" relative="1" as="geometry">
            <mxPoint x="170" y="180" as="sourcePoint" />
            <mxPoint x="220" y="130" as="targetPoint" />
          </mxGeometry>
        </mxCell>
        <mxCell id="c4MIGHAGQRNv4FYE_i-L-4" style="edgeStyle=orthogonalEdgeStyle;rounded=0;orthogonalLoop=1;jettySize=auto;html=1;exitX=0.5;exitY=1;exitDx=0;exitDy=0;" edge="1" parent="1" source="c4MIGHAGQRNv4FYE_i-L-2" target="c4MIGHAGQRNv4FYE_i-L-2">
          <mxGeometry relative="1" as="geometry" />
        </mxCell>
        <mxCell id="c4MIGHAGQRNv4FYE_i-L-8" value="NATURAL LANGUAGE&lt;div&gt;QUERY PROCESSING&lt;/div&gt;" style="whiteSpace=wrap;html=1;" vertex="1" parent="1">
          <mxGeometry x="10" y="300" width="160" height="50" as="geometry" />
        </mxCell>
        <mxCell id="c4MIGHAGQRNv4FYE_i-L-9" value="RAG SYSTEM" style="rounded=0;whiteSpace=wrap;html=1;" vertex="1" parent="1">
          <mxGeometry x="200" y="300" width="100" height="50" as="geometry" />
        </mxCell>
        <mxCell id="c4MIGHAGQRNv4FYE_i-L-10" value="RETRIVE CONTEXT&lt;div&gt;RICH. INFO&lt;/div&gt;" style="whiteSpace=wrap;html=1;" vertex="1" parent="1">
          <mxGeometry x="330" y="300" width="140" height="50" as="geometry" />
        </mxCell>
        <mxCell id="c4MIGHAGQRNv4FYE_i-L-11" value="" style="endArrow=none;html=1;rounded=0;exitX=0.391;exitY=-0.047;exitDx=0;exitDy=0;exitPerimeter=0;entryX=0.328;entryY=0.987;entryDx=0;entryDy=0;entryPerimeter=0;" edge="1" parent="1" source="c4MIGHAGQRNv4FYE_i-L-8" target="c4MIGHAGQRNv4FYE_i-L-2">
          <mxGeometry width="50" height="50" relative="1" as="geometry">
            <mxPoint x="270" y="250" as="sourcePoint" />
            <mxPoint x="320" y="200" as="targetPoint" />
          </mxGeometry>
        </mxCell>
        <mxCell id="c4MIGHAGQRNv4FYE_i-L-12" value="" style="endArrow=none;html=1;rounded=0;exitX=0.5;exitY=0;exitDx=0;exitDy=0;entryX=0.5;entryY=1;entryDx=0;entryDy=0;" edge="1" parent="1" source="c4MIGHAGQRNv4FYE_i-L-9" target="c4MIGHAGQRNv4FYE_i-L-2">
          <mxGeometry width="50" height="50" relative="1" as="geometry">
            <mxPoint x="270" y="250" as="sourcePoint" />
            <mxPoint x="320" y="200" as="targetPoint" />
          </mxGeometry>
        </mxCell>
        <mxCell id="c4MIGHAGQRNv4FYE_i-L-13" value="" style="endArrow=none;html=1;rounded=0;exitX=0.75;exitY=1;exitDx=0;exitDy=0;entryX=0;entryY=0;entryDx=0;entryDy=0;" edge="1" parent="1" source="c4MIGHAGQRNv4FYE_i-L-2" target="c4MIGHAGQRNv4FYE_i-L-10">
          <mxGeometry width="50" height="50" relative="1" as="geometry">
            <mxPoint x="270" y="250" as="sourcePoint" />
            <mxPoint x="320" y="200" as="targetPoint" />
          </mxGeometry>
        </mxCell>
        <mxCell id="c4MIGHAGQRNv4FYE_i-L-14" value="USER" style="rounded=0;whiteSpace=wrap;html=1;" vertex="1" parent="1">
          <mxGeometry x="20" y="430" width="120" height="50" as="geometry" />
        </mxCell>
        <mxCell id="c4MIGHAGQRNv4FYE_i-L-15" value="AUTOMATED&lt;div&gt;REPORTING&lt;/div&gt;" style="whiteSpace=wrap;html=1;" vertex="1" parent="1">
          <mxGeometry x="450" y="180" width="120" height="50" as="geometry" />
        </mxCell>
        <mxCell id="c4MIGHAGQRNv4FYE_i-L-16" value="DISPLAY INTERACTIVE DASHBOARDS" style="whiteSpace=wrap;html=1;" vertex="1" parent="1">
          <mxGeometry x="500" y="300" width="140" height="50" as="geometry" />
        </mxCell>
        <mxCell id="c4MIGHAGQRNv4FYE_i-L-17" value="" style="endArrow=none;html=1;rounded=0;entryX=0.5;entryY=1;entryDx=0;entryDy=0;exitX=0.7;exitY=-0.04;exitDx=0;exitDy=0;exitPerimeter=0;" edge="1" parent="1" source="c4MIGHAGQRNv4FYE_i-L-16" target="c4MIGHAGQRNv4FYE_i-L-1">
          <mxGeometry width="50" height="50" relative="1" as="geometry">
            <mxPoint x="470" y="320" as="sourcePoint" />
            <mxPoint x="520" y="270" as="targetPoint" />
          </mxGeometry>
        </mxCell>
        <mxCell id="c4MIGHAGQRNv4FYE_i-L-18" value="" style="endArrow=none;html=1;rounded=0;entryX=0.25;entryY=1;entryDx=0;entryDy=0;exitX=0.5;exitY=0;exitDx=0;exitDy=0;" edge="1" parent="1" source="c4MIGHAGQRNv4FYE_i-L-15" target="c4MIGHAGQRNv4FYE_i-L-1">
          <mxGeometry width="50" height="50" relative="1" as="geometry">
            <mxPoint x="520" y="170" as="sourcePoint" />
            <mxPoint x="520" y="270" as="targetPoint" />
          </mxGeometry>
        </mxCell>
        <mxCell id="c4MIGHAGQRNv4FYE_i-L-19" value="PUBLIC ENGAGEMENT&amp;nbsp;&lt;div&gt;IMPROVEMENT&lt;/div&gt;" style="whiteSpace=wrap;html=1;" vertex="1" parent="1">
          <mxGeometry x="640" y="180" width="160" height="50" as="geometry" />
        </mxCell>
        <mxCell id="c4MIGHAGQRNv4FYE_i-L-20" value="CHATBOTS" style="rounded=0;whiteSpace=wrap;html=1;" vertex="1" parent="1">
          <mxGeometry x="660" y="300" width="80" height="50" as="geometry" />
        </mxCell>
        <mxCell id="c4MIGHAGQRNv4FYE_i-L-23" value="USER" style="rounded=0;whiteSpace=wrap;html=1;" vertex="1" parent="1">
          <mxGeometry x="620" y="450" width="120" height="50" as="geometry" />
        </mxCell>
        <mxCell id="c4MIGHAGQRNv4FYE_i-L-24" value="" style="endArrow=none;html=1;rounded=0;entryX=0.25;entryY=1;entryDx=0;entryDy=0;exitX=0.5;exitY=0;exitDx=0;exitDy=0;" edge="1" parent="1" source="c4MIGHAGQRNv4FYE_i-L-23" target="c4MIGHAGQRNv4FYE_i-L-20">
          <mxGeometry width="50" height="50" relative="1" as="geometry">
            <mxPoint x="570" y="450" as="sourcePoint" />
            <mxPoint x="620" y="400" as="targetPoint" />
          </mxGeometry>
        </mxCell>
        <mxCell id="c4MIGHAGQRNv4FYE_i-L-25" value="SENTIMENT ANALYSIS" style="rounded=0;whiteSpace=wrap;html=1;" vertex="1" parent="1">
          <mxGeometry x="700" y="370" width="120" height="50" as="geometry" />
        </mxCell>
        <mxCell id="c4MIGHAGQRNv4FYE_i-L-26" value="" style="endArrow=none;html=1;rounded=0;entryX=0.75;entryY=1;entryDx=0;entryDy=0;exitX=0.5;exitY=0;exitDx=0;exitDy=0;" edge="1" parent="1" source="c4MIGHAGQRNv4FYE_i-L-25" target="c4MIGHAGQRNv4FYE_i-L-19">
          <mxGeometry width="50" height="50" relative="1" as="geometry">
            <mxPoint x="530" y="330" as="sourcePoint" />
            <mxPoint x="580" y="280" as="targetPoint" />
          </mxGeometry>
        </mxCell>
        <mxCell id="c4MIGHAGQRNv4FYE_i-L-27" value="" style="endArrow=none;html=1;rounded=0;entryX=0.25;entryY=1;entryDx=0;entryDy=0;exitX=0.25;exitY=0;exitDx=0;exitDy=0;" edge="1" parent="1" source="c4MIGHAGQRNv4FYE_i-L-20" target="c4MIGHAGQRNv4FYE_i-L-19">
          <mxGeometry width="50" height="50" relative="1" as="geometry">
            <mxPoint x="710" y="390" as="sourcePoint" />
            <mxPoint x="700" y="250" as="targetPoint" />
          </mxGeometry>
        </mxCell>
        <mxCell id="c4MIGHAGQRNv4FYE_i-L-28" value="SECURITY AND&amp;nbsp;&lt;div&gt;FRAUD DETECTION&lt;/div&gt;" style="whiteSpace=wrap;html=1;" vertex="1" parent="1">
          <mxGeometry x="880" y="180" width="140" height="50" as="geometry" />
        </mxCell>
        <mxCell id="c4MIGHAGQRNv4FYE_i-L-29" value="THREAT MONITORING" style="whiteSpace=wrap;html=1;" vertex="1" parent="1">
          <mxGeometry x="1010" y="300" width="140" height="50" as="geometry" />
        </mxCell>
        <mxCell id="c4MIGHAGQRNv4FYE_i-L-30" value="ANOMALY IN&amp;nbsp;&lt;div&gt;OPERATION&lt;/div&gt;" style="whiteSpace=wrap;html=1;" vertex="1" parent="1">
          <mxGeometry x="820" y="300" width="140" height="50" as="geometry" />
        </mxCell>
        <mxCell id="c4MIGHAGQRNv4FYE_i-L-32" value="" style="endArrow=none;html=1;rounded=0;entryX=0.25;entryY=1;entryDx=0;entryDy=0;exitX=0.25;exitY=0;exitDx=0;exitDy=0;" edge="1" parent="1" source="c4MIGHAGQRNv4FYE_i-L-14" target="c4MIGHAGQRNv4FYE_i-L-8">
          <mxGeometry width="50" height="50" relative="1" as="geometry">
            <mxPoint x="240" y="490" as="sourcePoint" />
            <mxPoint x="290" y="440" as="targetPoint" />
          </mxGeometry>
        </mxCell>
        <mxCell id="c4MIGHAGQRNv4FYE_i-L-33" value="" style="endArrow=none;html=1;rounded=0;entryX=0.75;entryY=1;entryDx=0;entryDy=0;exitX=0.5;exitY=0;exitDx=0;exitDy=0;" edge="1" parent="1" source="c4MIGHAGQRNv4FYE_i-L-19" target="c4MIGHAGQRNv4FYE_i-L-1">
          <mxGeometry width="50" height="50" relative="1" as="geometry">
            <mxPoint x="240" y="490" as="sourcePoint" />
            <mxPoint x="290" y="440" as="targetPoint" />
          </mxGeometry>
        </mxCell>
        <mxCell id="c4MIGHAGQRNv4FYE_i-L-34" value="" style="endArrow=none;html=1;rounded=0;entryX=1;entryY=1;entryDx=0;entryDy=0;exitX=0;exitY=0;exitDx=0;exitDy=0;" edge="1" parent="1" source="c4MIGHAGQRNv4FYE_i-L-28" target="c4MIGHAGQRNv4FYE_i-L-1">
          <mxGeometry width="50" height="50" relative="1" as="geometry">
            <mxPoint x="240" y="490" as="sourcePoint" />
            <mxPoint x="290" y="440" as="targetPoint" />
          </mxGeometry>
        </mxCell>
        <mxCell id="c4MIGHAGQRNv4FYE_i-L-35" value="" style="endArrow=none;html=1;rounded=0;entryX=0.25;entryY=1;entryDx=0;entryDy=0;exitX=0.5;exitY=0;exitDx=0;exitDy=0;" edge="1" parent="1" source="c4MIGHAGQRNv4FYE_i-L-30" target="c4MIGHAGQRNv4FYE_i-L-28">
          <mxGeometry width="50" height="50" relative="1" as="geometry">
            <mxPoint x="250" y="500" as="sourcePoint" />
            <mxPoint x="300" y="450" as="targetPoint" />
          </mxGeometry>
        </mxCell>
        <mxCell id="c4MIGHAGQRNv4FYE_i-L-36" value="" style="endArrow=none;html=1;rounded=0;entryX=0.75;entryY=1;entryDx=0;entryDy=0;exitX=0.5;exitY=0;exitDx=0;exitDy=0;" edge="1" parent="1" source="c4MIGHAGQRNv4FYE_i-L-29" target="c4MIGHAGQRNv4FYE_i-L-28">
          <mxGeometry width="50" height="50" relative="1" as="geometry">
            <mxPoint x="1040" y="280" as="sourcePoint" />
            <mxPoint x="1090" y="230" as="targetPoint" />
          </mxGeometry>
        </mxCell>
        <mxCell id="c4MIGHAGQRNv4FYE_i-L-53" value="" style="endArrow=classic;html=1;rounded=0;" edge="1" parent="1" source="c4MIGHAGQRNv4FYE_i-L-54">
          <mxGeometry width="50" height="50" relative="1" as="geometry">
            <mxPoint x="240" y="140" as="sourcePoint" />
            <mxPoint x="300" y="120" as="targetPoint" />
          </mxGeometry>
        </mxCell>
        <mxCell id="c4MIGHAGQRNv4FYE_i-L-54" value="" style="ellipse;whiteSpace=wrap;html=1;aspect=fixed;" vertex="1" parent="1">
          <mxGeometry x="230" y="140" width="10" height="10" as="geometry" />
        </mxCell>
        <mxCell id="c4MIGHAGQRNv4FYE_i-L-56" value="&lt;font style=&quot;font-size: 10px;&quot;&gt;Update&lt;/font&gt;" style="text;html=1;align=center;verticalAlign=middle;resizable=0;points=[];autosize=1;strokeColor=none;fillColor=none;" vertex="1" parent="1">
          <mxGeometry x="220" y="110" width="60" height="30" as="geometry" />
        </mxCell>
        <mxCell id="c4MIGHAGQRNv4FYE_i-L-61" value="&lt;font style=&quot;font-size: 11px;&quot;&gt;Query&lt;/font&gt;" style="text;html=1;align=center;verticalAlign=middle;resizable=0;points=[];autosize=1;strokeColor=none;fillColor=none;fontSize=11;" vertex="1" parent="1">
          <mxGeometry y="369" width="50" height="30" as="geometry" />
        </mxCell>
        <mxCell id="c4MIGHAGQRNv4FYE_i-L-62" value="Desired Info" style="text;html=1;align=center;verticalAlign=middle;resizable=0;points=[];autosize=1;strokeColor=none;fillColor=none;fontSize=11;" vertex="1" parent="1">
          <mxGeometry x="70" y="370" width="80" height="30" as="geometry" />
        </mxCell>
        <mxCell id="c4MIGHAGQRNv4FYE_i-L-63" value="&lt;font style=&quot;font-size: 11px;&quot;&gt;Query&lt;/font&gt;" style="text;html=1;align=center;verticalAlign=middle;resizable=0;points=[];autosize=1;strokeColor=none;fillColor=none;fontSize=11;" vertex="1" parent="1">
          <mxGeometry x="10" y="250" width="50" height="30" as="geometry" />
        </mxCell>
        <mxCell id="c4MIGHAGQRNv4FYE_i-L-64" value="Desired Info" style="text;html=1;align=center;verticalAlign=middle;resizable=0;points=[];autosize=1;strokeColor=none;fillColor=none;fontSize=11;" vertex="1" parent="1">
          <mxGeometry x="90" y="260" width="80" height="30" as="geometry" />
        </mxCell>
        <mxCell id="c4MIGHAGQRNv4FYE_i-L-65" value="&lt;font style=&quot;font-size: 11px;&quot;&gt;Query&lt;/font&gt;" style="text;html=1;align=center;verticalAlign=middle;resizable=0;points=[];autosize=1;strokeColor=none;fillColor=none;fontSize=11;" vertex="1" parent="1">
          <mxGeometry x="170" y="270" width="50" height="30" as="geometry" />
        </mxCell>
        <mxCell id="c4MIGHAGQRNv4FYE_i-L-67" value="&lt;font size=&quot;1&quot;&gt;Response&lt;/font&gt;" style="text;html=1;align=center;verticalAlign=middle;resizable=0;points=[];autosize=1;strokeColor=none;fillColor=none;" vertex="1" parent="1">
          <mxGeometry x="220" y="270" width="70" height="30" as="geometry" />
        </mxCell>
        <mxCell id="c4MIGHAGQRNv4FYE_i-L-68" value="&lt;span style=&quot;font-size: 10px;&quot;&gt;Desired info&lt;/span&gt;" style="text;html=1;align=center;verticalAlign=middle;resizable=0;points=[];autosize=1;strokeColor=none;fillColor=none;" vertex="1" parent="1">
          <mxGeometry x="270" y="250" width="80" height="30" as="geometry" />
        </mxCell>
        <mxCell id="c4MIGHAGQRNv4FYE_i-L-69" value="Reports" style="text;html=1;align=center;verticalAlign=middle;resizable=0;points=[];autosize=1;strokeColor=none;fillColor=none;" vertex="1" parent="1">
          <mxGeometry x="440" y="140" width="70" height="30" as="geometry" />
        </mxCell>
        <mxCell id="c4MIGHAGQRNv4FYE_i-L-71" value="Reports to show" style="text;html=1;align=center;verticalAlign=middle;resizable=0;points=[];autosize=1;strokeColor=none;fillColor=none;" vertex="1" parent="1">
          <mxGeometry x="590" y="140" width="110" height="30" as="geometry" />
        </mxCell>
        <mxCell id="c4MIGHAGQRNv4FYE_i-L-72" value="Interactions" style="text;html=1;align=center;verticalAlign=middle;resizable=0;points=[];autosize=1;strokeColor=none;fillColor=none;" vertex="1" parent="1">
          <mxGeometry x="585" y="400" width="90" height="30" as="geometry" />
        </mxCell>
        <mxCell id="c4MIGHAGQRNv4FYE_i-L-73" value="Records" style="text;html=1;align=center;verticalAlign=middle;resizable=0;points=[];autosize=1;strokeColor=none;fillColor=none;" vertex="1" parent="1">
          <mxGeometry x="610" y="250" width="70" height="30" as="geometry" />
        </mxCell>
        <mxCell id="c4MIGHAGQRNv4FYE_i-L-74" value="Records" style="text;html=1;align=center;verticalAlign=middle;resizable=0;points=[];autosize=1;strokeColor=none;fillColor=none;" vertex="1" parent="1">
          <mxGeometry x="760" y="260" width="70" height="30" as="geometry" />
        </mxCell>
        <mxCell id="c4MIGHAGQRNv4FYE_i-L-75" value="Update" style="text;html=1;align=center;verticalAlign=middle;resizable=0;points=[];autosize=1;strokeColor=none;fillColor=none;" vertex="1" parent="1">
          <mxGeometry x="920" y="260" width="60" height="30" as="geometry" />
        </mxCell>
        <mxCell id="c4MIGHAGQRNv4FYE_i-L-76" value="Reports of threat" style="text;html=1;align=center;verticalAlign=middle;resizable=0;points=[];autosize=1;strokeColor=none;fillColor=none;" vertex="1" parent="1">
          <mxGeometry x="1040" y="240" width="110" height="30" as="geometry" />
        </mxCell>
        <mxCell id="c4MIGHAGQRNv4FYE_i-L-77" value="Alert Message" style="text;html=1;align=center;verticalAlign=middle;resizable=0;points=[];autosize=1;strokeColor=none;fillColor=none;" vertex="1" parent="1">
          <mxGeometry x="830" y="120" width="100" height="30" as="geometry" />
        </mxCell>
      </root>
    </mxGraphModel>
  </diagram>
</mxfile>
